# xmcd
# 
# Track frame offsets:
#     150
#     13701
#     35179
#     55613
# 
# Disc length: 993
# 
# Revision: 0
# Processed by: cddbd v1.5.2PL0 Copyright (c) Steve Scherf et al.
# Submitted via: fre:ac v1.0.17
# 
DISCID=2c03df04
DTITLE=坪井川園遊会　熊本地震義援CD - 坪井川園遊会　熊本地震義援CD
DYEAR=2016
DGENRE=
TTITLE0=あの日見た風景
TTITLE1=きいてはいよ
TTITLE2=ぼちぼちゆっくり頑張ろう
TTITLE3=ときめいてくまもと
EXTD=
EXTT0=
EXTT1=
EXTT2=
EXTT3=
PLAYORDER=
